<svg aria-roledescription="gantt" role="graphics-document document" style="max-width: 100%;" viewBox="0 0 1713 1420" xmlns="http://www.w3.org/2000/svg" width="1000px" id="graph-div" height="865px" xmlns:xlink="http://www.w3.org/1999/xlink"><style>@import url("https://cdnjs.cloudflare.com/ajax/libs/font-awesome/6.4.2/css/all.min.css");'</style><style>#graph-div{font-family:"trebuchet ms",verdana,arial,sans-serif;font-size:16px;fill:#ccc;}#graph-div .error-icon{fill:#a44141;}#graph-div .error-text{fill:#ddd;stroke:#ddd;}#graph-div .edge-thickness-normal{stroke-width:2px;}#graph-div .edge-thickness-thick{stroke-width:3.5px;}#graph-div .edge-pattern-solid{stroke-dasharray:0;}#graph-div .edge-pattern-dashed{stroke-dasharray:3;}#graph-div .edge-pattern-dotted{stroke-dasharray:2;}#graph-div .marker{fill:lightgrey;stroke:lightgrey;}#graph-div .marker.cross{stroke:lightgrey;}#graph-div svg{font-family:"trebuchet ms",verdana,arial,sans-serif;font-size:16px;}#graph-div .mermaid-main-font{font-family:"trebuchet ms",verdana,arial,sans-serif;font-family:var(--mermaid-font-family);}#graph-div .exclude-range{fill:hsl(52.9411764706, 28.813559322%, 48.431372549%);}#graph-div .section{stroke:none;opacity:0.2;}#graph-div .section0{fill:hsl(52.9411764706, 28.813559322%, 58.431372549%);}#graph-div .section2{fill:#EAE8D9;}#graph-div .section1,#graph-div .section3{fill:#333;opacity:0.2;}#graph-div .sectionTitle0{fill:#F9FFFE;}#graph-div .sectionTitle1{fill:#F9FFFE;}#graph-div .sectionTitle2{fill:#F9FFFE;}#graph-div .sectionTitle3{fill:#F9FFFE;}#graph-div .sectionTitle{text-anchor:start;font-family:'trebuchet ms',verdana,arial,sans-serif;font-family:var(--mermaid-font-family);}#graph-div .grid .tick{stroke:lightgrey;opacity:0.8;shape-rendering:crispEdges;}#graph-div .grid .tick text{font-family:"trebuchet ms",verdana,arial,sans-serif;fill:#ccc;}#graph-div .grid path{stroke-width:0;}#graph-div .today{fill:none;stroke:#DB5757;stroke-width:2px;}#graph-div .task{stroke-width:2;}#graph-div .taskText{text-anchor:middle;font-family:'trebuchet ms',verdana,arial,sans-serif;font-family:var(--mermaid-font-family);}#graph-div .taskTextOutsideRight{fill:hsl(28.5714285714, 17.3553719008%, 86.2745098039%);text-anchor:start;font-family:'trebuchet ms',verdana,arial,sans-serif;font-family:var(--mermaid-font-family);}#graph-div .taskTextOutsideLeft{fill:hsl(28.5714285714, 17.3553719008%, 86.2745098039%);text-anchor:end;}#graph-div .task.clickable{cursor:pointer;}#graph-div .taskText.clickable{cursor:pointer;fill:#003163!important;font-weight:bold;}#graph-div .taskTextOutsideLeft.clickable{cursor:pointer;fill:#003163!important;font-weight:bold;}#graph-div .taskTextOutsideRight.clickable{cursor:pointer;fill:#003163!important;font-weight:bold;}#graph-div .taskText0,#graph-div .taskText1,#graph-div .taskText2,#graph-div .taskText3{fill:hsl(28.5714285714, 17.3553719008%, 86.2745098039%);}#graph-div .task0,#graph-div .task1,#graph-div .task2,#graph-div .task3{fill:hsl(180, 1.5873015873%, 35.3529411765%);stroke:#ffffff;}#graph-div .taskTextOutside0,#graph-div .taskTextOutside2{fill:lightgrey;}#graph-div .taskTextOutside1,#graph-div .taskTextOutside3{fill:lightgrey;}#graph-div .active0,#graph-div .active1,#graph-div .active2,#graph-div .active3{fill:#81B1DB;stroke:#ffffff;}#graph-div .activeText0,#graph-div .activeText1,#graph-div .activeText2,#graph-div .activeText3{fill:hsl(28.5714285714, 17.3553719008%, 86.2745098039%)!important;}#graph-div .done0,#graph-div .done1,#graph-div .done2,#graph-div .done3{stroke:grey;fill:lightgrey;stroke-width:2;}#graph-div .doneText0,#graph-div .doneText1,#graph-div .doneText2,#graph-div .doneText3{fill:hsl(28.5714285714, 17.3553719008%, 86.2745098039%)!important;}#graph-div .crit0,#graph-div .crit1,#graph-div .crit2,#graph-div .crit3{stroke:#E83737;fill:#E83737;stroke-width:2;}#graph-div .activeCrit0,#graph-div .activeCrit1,#graph-div .activeCrit2,#graph-div .activeCrit3{stroke:#E83737;fill:#81B1DB;stroke-width:2;}#graph-div .doneCrit0,#graph-div .doneCrit1,#graph-div .doneCrit2,#graph-div .doneCrit3{stroke:#E83737;fill:lightgrey;stroke-width:2;cursor:pointer;shape-rendering:crispEdges;}#graph-div .milestone{transform:rotate(45deg) scale(0.8,0.8);}#graph-div .milestoneText{font-style:italic;}#graph-div .doneCritText0,#graph-div .doneCritText1,#graph-div .doneCritText2,#graph-div .doneCritText3{fill:hsl(28.5714285714, 17.3553719008%, 86.2745098039%)!important;}#graph-div .activeCritText0,#graph-div .activeCritText1,#graph-div .activeCritText2,#graph-div .activeCritText3{fill:hsl(28.5714285714, 17.3553719008%, 86.2745098039%)!important;}#graph-div .titleText{text-anchor:middle;font-size:18px;fill:#ccc;font-family:'trebuchet ms',verdana,arial,sans-serif;font-family:var(--mermaid-font-family);}#graph-div :root{--mermaid-font-family:"trebuchet ms",verdana,arial,sans-serif;}</style><g></g><g text-anchor="middle" font-family="sans-serif" font-size="10" fill="none" transform="translate(75, 1370)" class="grid"><path d="M0,-1335V0H1563V-1335" stroke="currentColor" class="domain"></path><g transform="translate(39,0)" opacity="1" class="tick"><line y2="-1335" stroke="currentColor"></line><text style="text-anchor: middle;" font-size="10" stroke="none" dy="1em" y="3" fill="#000">1800</text></g><g transform="translate(180,0)" opacity="1" class="tick"><line y2="-1335" stroke="currentColor"></line><text style="text-anchor: middle;" font-size="10" stroke="none" dy="1em" y="3" fill="#000">1810</text></g><g transform="translate(320,0)" opacity="1" class="tick"><line y2="-1335" stroke="currentColor"></line><text style="text-anchor: middle;" font-size="10" stroke="none" dy="1em" y="3" fill="#000">1820</text></g><g transform="translate(461,0)" opacity="1" class="tick"><line y2="-1335" stroke="currentColor"></line><text style="text-anchor: middle;" font-size="10" stroke="none" dy="1em" y="3" fill="#000">1830</text></g><g transform="translate(601,0)" opacity="1" class="tick"><line y2="-1335" stroke="currentColor"></line><text style="text-anchor: middle;" font-size="10" stroke="none" dy="1em" y="3" fill="#000">1840</text></g><g transform="translate(742,0)" opacity="1" class="tick"><line y2="-1335" stroke="currentColor"></line><text style="text-anchor: middle;" font-size="10" stroke="none" dy="1em" y="3" fill="#000">1850</text></g><g transform="translate(882,0)" opacity="1" class="tick"><line y2="-1335" stroke="currentColor"></line><text style="text-anchor: middle;" font-size="10" stroke="none" dy="1em" y="3" fill="#000">1860</text></g><g transform="translate(1022,0)" opacity="1" class="tick"><line y2="-1335" stroke="currentColor"></line><text style="text-anchor: middle;" font-size="10" stroke="none" dy="1em" y="3" fill="#000">1870</text></g><g transform="translate(1163,0)" opacity="1" class="tick"><line y2="-1335" stroke="currentColor"></line><text style="text-anchor: middle;" font-size="10" stroke="none" dy="1em" y="3" fill="#000">1880</text></g><g transform="translate(1303,0)" opacity="1" class="tick"><line y2="-1335" stroke="currentColor"></line><text style="text-anchor: middle;" font-size="10" stroke="none" dy="1em" y="3" fill="#000">1890</text></g><g transform="translate(1444,0)" opacity="1" class="tick"><line y2="-1335" stroke="currentColor"></line><text style="text-anchor: middle;" font-size="10" stroke="none" dy="1em" y="3" fill="#000">1900</text></g></g><g><rect class="section section1" height="24" width="1675.5" y="360" x="0"></rect><rect class="section section0" height="24" width="1675.5" y="48" x="0"></rect><rect class="section section2" height="24" width="1675.5" y="432" x="0"></rect><rect class="section section3" height="24" width="1675.5" y="1200" x="0"></rect><rect class="section section2" height="24" width="1675.5" y="792" x="0"></rect><rect class="section section3" height="24" width="1675.5" y="552" x="0"></rect><rect class="section section0" height="24" width="1675.5" y="1272" x="0"></rect><rect class="section section0" height="24" width="1675.5" y="624" x="0"></rect><rect class="section section3" height="24" width="1675.5" y="864" x="0"></rect><rect class="section section1" height="24" width="1675.5" y="720" x="0"></rect><rect class="section section0" height="24" width="1675.5" y="960" x="0"></rect><rect class="section section2" height="24" width="1675.5" y="1128" x="0"></rect><rect class="section section0" height="24" width="1675.5" y="72" x="0"></rect><rect class="section section1" height="24" width="1675.5" y="384" x="0"></rect><rect class="section section1" height="24" width="1675.5" y="408" x="0"></rect><rect class="section section1" height="24" width="1675.5" y="1032" x="0"></rect><rect class="section section2" height="24" width="1675.5" y="504" x="0"></rect><rect class="section section0" height="24" width="1675.5" y="96" x="0"></rect><rect class="section section2" height="24" width="1675.5" y="456" x="0"></rect><rect class="section section2" height="24" width="1675.5" y="480" x="0"></rect><rect class="section section0" height="24" width="1675.5" y="696" x="0"></rect><rect class="section section3" height="24" width="1675.5" y="936" x="0"></rect><rect class="section section0" height="24" width="1675.5" y="1344" x="0"></rect><rect class="section section0" height="24" width="1675.5" y="120" x="0"></rect><rect class="section section3" height="24" width="1675.5" y="576" x="0"></rect><rect class="section section3" height="24" width="1675.5" y="600" x="0"></rect><rect class="section section2" height="24" width="1675.5" y="528" x="0"></rect><rect class="section section0" height="24" width="1675.5" y="144" x="0"></rect><rect class="section section0" height="24" width="1675.5" y="648" x="0"></rect><rect class="section section0" height="24" width="1675.5" y="672" x="0"></rect><rect class="section section0" height="24" width="1675.5" y="168" x="0"></rect><rect class="section section1" height="24" width="1675.5" y="744" x="0"></rect><rect class="section section1" height="24" width="1675.5" y="768" x="0"></rect><rect class="section section0" height="24" width="1675.5" y="192" x="0"></rect><rect class="section section2" height="24" width="1675.5" y="816" x="0"></rect><rect class="section section2" height="24" width="1675.5" y="840" x="0"></rect><rect class="section section0" height="24" width="1675.5" y="216" x="0"></rect><rect class="section section3" height="24" width="1675.5" y="888" x="0"></rect><rect class="section section3" height="24" width="1675.5" y="912" x="0"></rect><rect class="section section0" height="24" width="1675.5" y="240" x="0"></rect><rect class="section section0" height="24" width="1675.5" y="984" x="0"></rect><rect class="section section0" height="24" width="1675.5" y="1008" x="0"></rect><rect class="section section0" height="24" width="1675.5" y="264" x="0"></rect><rect class="section section0" height="24" width="1675.5" y="288" x="0"></rect><rect class="section section1" height="24" width="1675.5" y="1056" x="0"></rect><rect class="section section1" height="24" width="1675.5" y="1080" x="0"></rect><rect class="section section2" height="24" width="1675.5" y="1152" x="0"></rect><rect class="section section2" height="24" width="1675.5" y="1176" x="0"></rect><rect class="section section0" height="24" width="1675.5" y="312" x="0"></rect><rect class="section section3" height="24" width="1675.5" y="1224" x="0"></rect><rect class="section section3" height="24" width="1675.5" y="1248" x="0"></rect><rect class="section section0" height="24" width="1675.5" y="336" x="0"></rect><rect class="section section0" height="24" width="1675.5" y="1296" x="0"></rect><rect class="section section0" height="24" width="1675.5" y="1320" x="0"></rect><rect class="section section1" height="24" width="1675.5" y="1104" x="0"></rect></g><g><rect class="task task1" transform-origin="356px 372px" height="20" width="562" y="362" x="75" ry="3" rx="3" id="task14"></rect><rect class="task task0" transform-origin="568px 60px" height="20" width="704" y="50" x="216" ry="3" rx="3" id="task1"></rect><rect class="task task2" transform-origin="821.5px 444px" height="20" width="1161" y="434" x="241" ry="3" rx="3" id="task17"></rect><rect class="task task3" transform-origin="742px 1212px" height="20" width="908" y="1202" x="288" ry="3" rx="3" id="task49"></rect><rect class="task task2" transform-origin="893.5px 804px" height="20" width="1199" y="794" x="294" ry="3" rx="3" id="task32"></rect><rect class="task task3" transform-origin="912px 564px" height="20" width="1140" y="554" x="342" ry="3" rx="3" id="task22"></rect><rect class="task task0" transform-origin="766px 1284px" height="20" width="798" y="1274" x="367" ry="3" rx="3" id="task52"></rect><rect class="task task0" transform-origin="933px 636px" height="20" width="1120" y="626" x="373" ry="3" rx="3" id="task25"></rect><rect class="task task3" transform-origin="923px 876px" height="20" width="1028" y="866" x="409" ry="3" rx="3" id="task35"></rect><rect class="task task1" transform-origin="879.5px 732px" height="20" width="897" y="722" x="431" ry="3" rx="3" id="task29"></rect><rect class="task task0" transform-origin="895px 972px" height="20" width="902" y="962" x="444" ry="3" rx="3" id="task39"></rect><rect class="task task2" transform-origin="953.5px 1140px" height="20" width="967" y="1130" x="470" ry="3" rx="3" id="task46"></rect><rect class="task milestone  done0" transform-origin="503px 84px" height="20" width="20" y="74" x="493" ry="3" rx="3" id="task2"></rect><rect class="task crit1" transform-origin="570px 396px" height="20" width="134" y="386" x="503" ry="3" rx="3" id="task15"></rect><rect class="task milestone  done1" transform-origin="503px 420px" height="20" width="20" y="410" x="493" ry="3" rx="3" id="task16"></rect><rect class="task task1" transform-origin="1083px 1044px" height="20" width="1110" y="1034" x="528" ry="3" rx="3" id="task42"></rect><rect class="task active2" transform-origin="603px 516px" height="20" width="72" y="506" x="567" ry="3" rx="3" id="task20"></rect><rect class="task milestone  done0" transform-origin="639px 108px" height="20" width="20" y="98" x="629" ry="3" rx="3" id="task3"></rect><rect class="task crit2" transform-origin="831.5px 468px" height="20" width="247" y="458" x="708" ry="3" rx="3" id="task18"></rect><rect class="task milestone  done2" transform-origin="639px 492px" height="20" width="20" y="482" x="629" ry="3" rx="3" id="task19"></rect><rect class="task active0" transform-origin="709px 708px" height="20" width="66" y="698" x="676" ry="3" rx="3" id="task28"></rect><rect class="task active3" transform-origin="711px 948px" height="20" width="58" y="938" x="682" ry="3" rx="3" id="task38"></rect><rect class="task active0" transform-origin="788.5px 1356px" height="20" width="197" y="1346" x="690" ry="3" rx="3" id="task55"></rect><rect class="task milestone  done0" transform-origin="718px 132px" height="20" width="20" y="122" x="708" ry="3" rx="3" id="task4"></rect><rect class="task crit3" transform-origin="819px 588px" height="20" width="202" y="578" x="718" ry="3" rx="3" id="task23"></rect><rect class="task milestone  done3" transform-origin="718px 612px" height="20" width="20" y="602" x="708" ry="3" rx="3" id="task24"></rect><rect class="task active2" transform-origin="732px 540px" height="20" width="14" y="530" x="725" ry="3" rx="3" id="task21"></rect><rect class="task milestone  done0" transform-origin="742px 156px" height="20" width="20" y="146" x="732" ry="3" rx="3" id="task5"></rect><rect class="task crit0" transform-origin="831px 660px" height="20" width="178" y="650" x="742" ry="3" rx="3" id="task26"></rect><rect class="task milestone  done0" transform-origin="742px 684px" height="20" width="20" y="674" x="732" ry="3" rx="3" id="task27"></rect><rect class="task milestone  done0" transform-origin="743px 180px" height="20" width="20" y="170" x="733" ry="3" rx="3" id="task6"></rect><rect class="task crit1" transform-origin="831.5px 756px" height="20" width="177" y="746" x="743" ry="3" rx="3" id="task30"></rect><rect class="task milestone  done1" transform-origin="743px 780px" height="20" width="20" y="770" x="733" ry="3" rx="3" id="task31"></rect><rect class="task milestone  done0" transform-origin="744px 204px" height="20" width="20" y="194" x="734" ry="3" rx="3" id="task7"></rect><rect class="task crit2" transform-origin="832px 828px" height="20" width="176" y="818" x="744" ry="3" rx="3" id="task33"></rect><rect class="task milestone  done2" transform-origin="744px 852px" height="20" width="20" y="842" x="734" ry="3" rx="3" id="task34"></rect><rect class="task milestone  done0" transform-origin="745px 228px" height="20" width="20" y="218" x="735" ry="3" rx="3" id="task8"></rect><rect class="task crit3" transform-origin="832.5px 900px" height="20" width="175" y="890" x="745" ry="3" rx="3" id="task36"></rect><rect class="task milestone  done3" transform-origin="745px 924px" height="20" width="20" y="914" x="735" ry="3" rx="3" id="task37"></rect><rect class="task milestone  done0" transform-origin="760px 252px" height="20" width="20" y="242" x="750" ry="3" rx="3" id="task9"></rect><rect class="task crit0" transform-origin="840px 996px" height="20" width="160" y="986" x="760" ry="3" rx="3" id="task40"></rect><rect class="task milestone  done0" transform-origin="760px 1020px" height="20" width="20" y="1010" x="750"  ry="3" rx="3" id="task41"></rect><rect class="task milestone  done0" transform-origin="779px 276px" height="20" width="20" y="266" x="769" ry="3" rx="3" id="task10"></rect><rect class="task milestone  done0" transform-origin="779px 300px" height="20" width="20" y="290" x="769" ry="3" rx="3" id="task11"></rect><rect class="task crit1" transform-origin="849.5px 1068px" height="20" width="141" y="1058" x="779" ry="3" rx="3" id="task43"></rect><rect class="task milestone  done1" transform-origin="779px 1092px" height="20" width="20" y="1082" x="769"  ry="3" rx="3" id="task44"></rect><rect class="task crit2" transform-origin="849.5px 1164px" height="20" width="141" y="1154" x="779" ry="3" rx="3" id="task47"></rect><rect class="task milestone  done2" transform-origin="779px 1188px" height="20" width="20" y="1178" x="769"  ry="3" rx="3" id="task48"></rect><rect class="task milestone  done0" transform-origin="859px 324px" height="20" width="20" y="314" x="849" ry="3" rx="3" id="task12"></rect><rect class="task crit3" transform-origin="889.5px 1236px" height="20" width="61" y="1226" x="859" ry="3" rx="3" id="task50"></rect><rect class="task milestone  done3" transform-origin="859px 1260px" height="20" width="20" y="1250" x="849"  ry="3" rx="3" id="task51"></rect><rect class="task milestone  done0" transform-origin="887px 348px" height="20" width="20" y="338" x="877" ry="3" rx="3" id="task13"></rect><rect class="task crit0" transform-origin="903.5px 1308px" height="20" width="33" y="1298" x="887" ry="3" rx="3" id="task53"></rect><rect class="task milestone  done0" transform-origin="887px 1332px" height="20" width="20" y="1322" x="877"  ry="3" rx="3" id="task54"></rect><rect class="task active1" transform-origin="1298.5px 1116px" height="20" width="679" y="1106" x="959" ry="3" rx="3" id="task45"></rect><text class="taskText taskText1  width-16.453125" y="375.5" x="356" font-size="11" id="task14-text">life</text><text class="taskText taskText0  width-16.453125" y="63.5" x="568" font-size="11" id="task1-text">life</text><text class="taskText taskText2  width-16.453125" y="447.5" x="821.5" font-size="11" id="task17-text">life</text><text class="taskText taskText3  width-16.453125" y="1215.5" x="742" font-size="11" id="task49-text">life</text><text class="taskText taskText2  width-16.453125" y="807.5" x="893.5" font-size="11" id="task32-text">life</text><text class="taskText taskText3  width-16.453125" y="567.5" x="912" font-size="11" id="task22-text">life</text><text class="taskText taskText0  width-16.453125" y="1287.5" x="766" font-size="11" id="task52-text">life</text><text class="taskText taskText0  width-16.453125" y="639.5" x="933" font-size="11" id="task25-text">life</text><text class="taskText taskText3  width-16.453125" y="879.5" x="923" font-size="11" id="task35-text">life</text><text class="taskText taskText1  width-16.453125" y="735.5" x="879.5" font-size="11" id="task29-text">life</text><text class="taskText taskText0  width-16.453125" y="975.5" x="895" font-size="11" id="task39-text">life</text><text class="taskText taskText2  width-16.453125" y="1143.5" x="953.5" font-size="11" id="task46-text">life</text><text class="taskTextOutsideRight taskTextOutside0  doneText0 milestoneText width-80.8671875" y="87.5" x="518"  font-size="11" id="task2-text">age 20 | gap -10</text><text class="taskText taskText1  critText1 width-43.8984375" y="399.5" x="570" font-size="11" id="task15-text">marriage</text><text class="taskTextOutsideRight taskTextOutside1  doneText1 milestoneText width-76.828125" y="423.5" x="518"  font-size="11" id="task16-text">age 30 | gap 10</text><text class="taskText taskText1  width-16.453125" y="1047.5" x="1083" font-size="11" id="task42-text">life</text><text class="taskTextOutsideRight taskTextOutside2 activeText2 width-135.234375" y="519.5" x="644"  font-size="11" id="task20-text">marriage to Nathan Stearns</text><text class="taskTextOutsideRight taskTextOutside0  doneText0 milestoneText width-71.0625" y="111.5" x="654"  font-size="11" id="task3-text">age 30 | gap 1</text><text class="taskText taskText2  critText2 width-43.8984375" y="471.5" x="832" font-size="11" id="task18-text">marriage</text><text class="taskTextOutsideRight taskTextOutside2  doneText2 milestoneText width-75.1015625" y="495.5" x="654"  font-size="11" id="task19-text">age 28 | gap -1</text><text class="taskTextOutsideRight taskTextOutside0 activeText0 width-120.296875" y="711.5" x="747"  font-size="11" id="task28-text">marriage to Henry Gibbs</text><text class="taskTextOutsideRight taskTextOutside3 activeText3 width-176.3671875" y="951.5" x="745"  font-size="11" id="task38-text">marriage to Benjamin Abbott Hilton</text><text class="taskText taskText0 activeText0 width-133.8984375" y="1359.5" x="788.5" font-size="11" id="task55-text">marriage to Hector McLean</text><text class="taskTextOutsideRight taskTextOutside0  doneText0 milestoneText width-71.0625" y="135.5" x="733"  font-size="11" id="task4-text">age 35 | gap 8</text><text class="taskText taskText3  critText3 width-43.8984375" y="591.5" x="819" font-size="11" id="task23-text">marriage</text><text class="taskTextOutsideRight taskTextOutside3  doneText3 milestoneText width-75.1015625" y="615.5" x="733"  font-size="11" id="task24-text">age 26 | gap -8</text><text class="taskTextOutsideRight taskTextOutside2 activeText2 width-138.6015625" y="543.5" x="744"  font-size="11" id="task21-text">marriage to Joseph Smith Jr</text><text class="taskTextOutsideRight taskTextOutside0  doneText0 milestoneText width-76.828125" y="159.5" x="757"  font-size="11" id="task5-text">age 37 | gap 11</text><text class="taskText taskText0  critText0 width-43.8984375" y="663.5" x="831" font-size="11" id="task26-text">marriage</text><text class="taskTextOutsideRight taskTextOutside0  doneText0 milestoneText width-80.8671875" y="687.5" x="757"  font-size="11" id="task27-text">age 26 | gap -11</text><text class="taskTextOutsideRight taskTextOutside0  doneText0 milestoneText width-76.828125" y="183.5" x="758"  font-size="11" id="task6-text">age 37 | gap 15</text><text class="taskText taskText1  critText1 width-43.8984375" y="759.5" x="831.5" font-size="11" id="task30-text">marriage</text><text class="taskTextOutsideRight taskTextOutside1  doneText1 milestoneText width-80.8671875" y="783.5" x="758"  font-size="11" id="task31-text">age 22 | gap -15</text><text class="taskTextOutsideRight taskTextOutside0  doneText0 milestoneText width-71.0625" y="207.5" x="759"  font-size="11" id="task7-text">age 37 | gap 5</text><text class="taskText taskText2  critText2 width-43.8984375" y="831.5" x="832" font-size="11" id="task33-text">marriage</text><text class="taskTextOutsideRight taskTextOutside2  doneText2 milestoneText width-75.1015625" y="855.5" x="759"  font-size="11" id="task34-text">age 32 | gap -5</text><text class="taskTextOutsideRight taskTextOutside0  doneText0 milestoneText width-76.828125" y="231.5" x="760"  font-size="11" id="task8-text">age 37 | gap 13</text><text class="taskText taskText3  critText3 width-43.8984375" y="903.5" x="832.5" font-size="11" id="task36-text">marriage</text><text class="taskTextOutsideRight taskTextOutside3  doneText3 milestoneText width-80.8671875" y="927.5" x="760"  font-size="11" id="task37-text">age 23 | gap -13</text><text class="taskTextOutsideRight taskTextOutside0  doneText0 milestoneText width-76.828125" y="255.5" x="775"  font-size="11" id="task9-text">age 38 | gap 16</text><text class="taskText taskText0  critText0 width-43.8984375" y="999.5" x="840" font-size="11" id="task40-text">marriage</text><text class="taskTextOutsideRight taskTextOutside0  doneText0 milestoneText width-80.8671875" y="1023.5" x="775"  font-size="11" id="task41-text">age 22 | gap -16</text><text class="taskTextOutsideRight taskTextOutside0  doneText0 milestoneText width-76.828125" y="279.5" x="794"  font-size="11" id="task10-text">age 40 | gap 22</text><text class="taskTextOutsideRight taskTextOutside0  doneText0 milestoneText width-76.828125" y="303.5" x="794"  font-size="11" id="task11-text">age 40 | gap 18</text><text class="taskText taskText1  critText1 width-43.8984375" y="1071.5" x="849.5" font-size="11" id="task43-text">marriage</text><text class="taskTextOutsideRight taskTextOutside1  doneText1 milestoneText width-80.8671875" y="1095.5" x="794"  font-size="11" id="task44-text">age 17 | gap -22</text><text class="taskText taskText2  critText2 width-43.8984375" y="1167.5" x="849.5" font-size="11" id="task47-text">marriage</text><text class="taskTextOutsideRight taskTextOutside2  doneText2 milestoneText width-80.8671875" y="1191.5" x="794"  font-size="11" id="task48-text">age 22 | gap -18</text><text class="taskTextOutsideRight taskTextOutside0  doneText0 milestoneText width-71.0625" y="327.5" x="874"  font-size="11" id="task12-text">age 45 | gap 5</text><text class="taskText taskText3  critText3 width-43.8984375" y="1239.5" x="889.5" font-size="11" id="task50-text">marriage</text><text class="taskTextOutsideRight taskTextOutside3  doneText3 milestoneText width-75.1015625" y="1263.5" x="874"  font-size="11" id="task51-text">age 40 | gap -5</text><text class="taskTextOutsideRight taskTextOutside0  doneText0 milestoneText width-76.828125" y="351.5" x="902"  font-size="11" id="task13-text">age 47 | gap 10</text><text class="taskTextOutsideRight taskTextOutside0  critText0 width-43.8984375" y="1311.5" x="925"  font-size="11" id="task53-text">marriage</text><text class="taskTextOutsideRight taskTextOutside0  doneText0 milestoneText width-80.8671875" y="1335.5" x="902"  font-size="11" id="task54-text">age 37 | gap -10</text><text class="taskText taskText1 activeText1 width-161.9140625" y="1119.5" x="1298.5" font-size="11" id="task45-text">marriage to Joseph Harris Ridges</text></g><g><text class="sectionTitle sectionTitle0" font-size="11" y="206" x="10" dy="0em"><tspan x="10" alignment-baseline="central">Parley Parker Pratt Sr</tspan></text><text class="sectionTitle sectionTitle1" font-size="11" y="398" x="10" dy="0em"><tspan x="10" alignment-baseline="central">Thankful Halsey</tspan></text><text class="sectionTitle sectionTitle2" font-size="11" y="494" x="10" dy="0em"><tspan x="10" alignment-baseline="central">Mary Ann Frost</tspan></text><text class="sectionTitle sectionTitle3" font-size="11" y="590" x="10" dy="0em"><tspan x="10" alignment-baseline="central">Elizabeth Brotherton</tspan></text><text class="sectionTitle sectionTitle0" font-size="11" y="674" x="10" dy="0em"><tspan x="10" alignment-baseline="central">Mary Wood</tspan></text><text class="sectionTitle sectionTitle1" font-size="11" y="758" x="10" dy="0em"><tspan x="10" alignment-baseline="central">Sarah Houston</tspan></text><text class="sectionTitle sectionTitle2" font-size="11" y="830" x="10" dy="0em"><tspan x="10" alignment-baseline="central">Hannahette Snively</tspan></text><text class="sectionTitle sectionTitle3" font-size="11" y="914" x="10" dy="0em"><tspan x="10" alignment-baseline="central">Belinda Marden</tspan></text><text class="sectionTitle sectionTitle0" font-size="11" y="998" x="10" dy="0em"><tspan x="10" alignment-baseline="central">Phoebe Elizabeth Sopher</tspan></text><text class="sectionTitle sectionTitle1" font-size="11" y="1082" x="10" dy="0em"><tspan x="10" alignment-baseline="central">Ann Agatha Walker</tspan></text><text class="sectionTitle sectionTitle2" font-size="11" y="1166" x="10" dy="0em"><tspan x="10" alignment-baseline="central">Martha Monk</tspan></text><text class="sectionTitle sectionTitle3" font-size="11" y="1238" x="10" dy="0em"><tspan x="10" alignment-baseline="central">Keziah Downs</tspan></text><text class="sectionTitle sectionTitle0" font-size="11" y="1322" x="10" dy="0em"><tspan x="10" alignment-baseline="central">Eleanor Jane McComb McLean</tspan></text></g><text class="titleText" y="25" x="856.5">Parley Parker Pratt Sr and his wives</text></svg>
